<!-- created at haikei.app  -->

<svg id="visual" viewBox="0 0 1920 1080" width="1920" height="1080" xmlns="http://www.w3.org/2000/svg" xmlns:xlink="http://www.w3.org/1999/xlink" version="1.1"><rect width="1920" height="1080" fill="#ffffff"></rect><g><g transform="translate(981 667)"><path d="M0 -73.3L63.5 -36.6L63.5 36.6L0 73.3L-63.5 36.6L-63.5 -36.6Z" fill="#f3f0dc"></path></g><g transform="translate(1356 957)"><path d="M0 -56L48.5 -28L48.5 28L0 56L-48.5 28L-48.5 -28Z" fill="#f3f0dc"></path></g><g transform="translate(318 43)"><path d="M0 -58L50.2 -29L50.2 29L0 58L-50.2 29L-50.2 -29Z" fill="#f3f0dc"></path></g><g transform="translate(1256 793)"><path d="M0 -66L57.2 -33L57.2 33L0 66L-57.2 33L-57.2 -33Z" fill="#f3f0dc"></path></g><g transform="translate(1839 296)"><path d="M0 -29L25.1 -14.5L25.1 14.5L0 29L-25.1 14.5L-25.1 -14.5Z" fill="#f3f0dc"></path></g><g transform="translate(1081 158)"><path d="M0 -44L38.1 -22L38.1 22L0 44L-38.1 22L-38.1 -22Z" fill="#f3f0dc"></path></g><g transform="translate(1369 414)"><path d="M0 -46L39.8 -23L39.8 23L0 46L-39.8 23L-39.8 -23Z" fill="#f3f0dc"></path></g><g transform="translate(1412 812)"><path d="M0 -55L47.6 -27.5L47.6 27.5L0 55L-47.6 27.5L-47.6 -27.5Z" fill="#f3f0dc"></path></g><g transform="translate(1825 97)"><path d="M0 -67L58 -33.5L58 33.5L0 67L-58 33.5L-58 -33.5Z" fill="#f3f0dc"></path></g><g transform="translate(1378 136)"><path d="M0 -60L52 -30L52 30L0 60L-52 30L-52 -30Z" fill="#f3f0dc"></path></g><g transform="translate(291 294)"><path d="M0 -60L52 -30L52 30L0 60L-52 30L-52 -30Z" fill="#f3f0dc"></path></g><g transform="translate(1811 730)"><path d="M0 -66L57.2 -33L57.2 33L0 66L-57.2 33L-57.2 -33Z" fill="#f3f0dc"></path></g><g transform="translate(569 661)"><path d="M0 -72L62.4 -36L62.4 36L0 72L-62.4 36L-62.4 -36Z" fill="#f3f0dc"></path></g><g transform="translate(1526 922)"><path d="M0 -55L47.6 -27.5L47.6 27.5L0 55L-47.6 27.5L-47.6 -27.5Z" fill="#f3f0dc"></path></g><g transform="translate(823 472)"><path d="M0 -57L49.4 -28.5L49.4 28.5L0 57L-49.4 28.5L-49.4 -28.5Z" fill="#f3f0dc"></path></g><g transform="translate(1251 1074)"><path d="M0 -39L33.8 -19.5L33.8 19.5L0 39L-33.8 19.5L-33.8 -19.5Z" fill="#f3f0dc"></path></g><g transform="translate(909 860)"><path d="M0 -32L27.7 -16L27.7 16L0 32L-27.7 16L-27.7 -16Z" fill="#f3f0dc"></path></g><g transform="translate(1775 998)"><path d="M0 -45L39 -22.5L39 22.5L0 45L-39 22.5L-39 -22.5Z" fill="#f3f0dc"></path></g><g transform="translate(1137 502)"><path d="M0 -56L48.5 -28L48.5 28L0 56L-48.5 28L-48.5 -28Z" fill="#f3f0dc"></path></g><g transform="translate(1541 216)"><path d="M0 -43L37.2 -21.5L37.2 21.5L0 43L-37.2 21.5L-37.2 -21.5Z" fill="#f3f0dc"></path></g><g transform="translate(1708 592)"><path d="M0 -29L25.1 -14.5L25.1 14.5L0 29L-25.1 14.5L-25.1 -14.5Z" fill="#f3f0dc"></path></g><g transform="translate(1513 534)"><path d="M0 -39L33.8 -19.5L33.8 19.5L0 39L-33.8 19.5L-33.8 -19.5Z" fill="#f3f0dc"></path></g><g transform="translate(1672 877)"><path d="M0 -40L34.6 -20L34.6 20L0 40L-34.6 20L-34.6 -20Z" fill="#f3f0dc"></path></g><g transform="translate(696 21)"><path d="M0 -56L48.5 -28L48.5 28L0 56L-48.5 28L-48.5 -28Z" fill="#f3f0dc"></path></g><g transform="translate(484 473)"><path d="M0 -57L49.4 -28.5L49.4 28.5L0 57L-49.4 28.5L-49.4 -28.5Z" fill="#f3f0dc"></path></g><g transform="translate(134 655)"><path d="M0 -43L37.2 -21.5L37.2 21.5L0 43L-37.2 21.5L-37.2 -21.5Z" fill="#f3f0dc"></path></g><g transform="translate(1091 932)"><path d="M0 -45L39 -22.5L39 22.5L0 45L-39 22.5L-39 -22.5Z" fill="#f3f0dc"></path></g><g transform="translate(482 845)"><path d="M0 -57L49.4 -28.5L49.4 28.5L0 57L-49.4 28.5L-49.4 -28.5Z" fill="#f3f0dc"></path></g><g transform="translate(1334 617)"><path d="M0 -53L45.9 -26.5L45.9 26.5L0 53L-45.9 26.5L-45.9 -26.5Z" fill="#f3f0dc"></path></g><g transform="translate(118 181)"><path d="M0 -38L32.9 -19L32.9 19L0 38L-32.9 19L-32.9 -19Z" fill="#f3f0dc"></path></g><g transform="translate(722 668)"><path d="M0 -66L57.2 -33L57.2 33L0 66L-57.2 33L-57.2 -33Z" fill="#f3f0dc"></path></g><g transform="translate(92 481)"><path d="M0 -47L40.7 -23.5L40.7 23.5L0 47L-40.7 23.5L-40.7 -23.5Z" fill="#f3f0dc"></path></g><g transform="translate(436 223)"><path d="M0 -72L62.4 -36L62.4 36L0 72L-62.4 36L-62.4 -36Z" fill="#f3f0dc"></path></g><g transform="translate(696 258)"><path d="M0 -68L58.9 -34L58.9 34L0 68L-58.9 34L-58.9 -34Z" fill="#f3f0dc"></path></g><g transform="translate(507 3)"><path d="M0 -44L38.1 -22L38.1 22L0 44L-38.1 22L-38.1 -22Z" fill="#f3f0dc"></path></g><g transform="translate(836 143)"><path d="M0 -42L36.4 -21L36.4 21L0 42L-36.4 21L-36.4 -21Z" fill="#f3f0dc"></path></g><g transform="translate(1783 438)"><path d="M0 -39L33.8 -19.5L33.8 19.5L0 39L-33.8 19.5L-33.8 -19.5Z" fill="#f3f0dc"></path></g><g transform="translate(567 965)"><path d="M0 -29L25.1 -14.5L25.1 14.5L0 29L-25.1 14.5L-25.1 -14.5Z" fill="#f3f0dc"></path></g><g transform="translate(1228 46)"><path d="M0 -66L57.2 -33L57.2 33L0 66L-57.2 33L-57.2 -33Z" fill="#f3f0dc"></path></g><g transform="translate(307 906)"><path d="M0 -51L44.2 -25.5L44.2 25.5L0 51L-44.2 25.5L-44.2 -25.5Z" fill="#f3f0dc"></path></g><g transform="translate(787 950)"><path d="M0 -62L53.7 -31L53.7 31L0 62L-53.7 31L-53.7 -31Z" fill="#f3f0dc"></path></g><g transform="translate(391 587)"><path d="M0 -30L26 -15L26 15L0 30L-26 15L-26 -15Z" fill="#f3f0dc"></path></g><g transform="translate(1518 28)"><path d="M0 -67L58 -33.5L58 33.5L0 67L-58 33.5L-58 -33.5Z" fill="#f3f0dc"></path></g><g transform="translate(125 877)"><path d="M0 -35L30.3 -17.5L30.3 17.5L0 35L-30.3 17.5L-30.3 -17.5Z" fill="#f3f0dc"></path></g><g transform="translate(946 18)"><path d="M0 -29L25.1 -14.5L25.1 14.5L0 29L-25.1 14.5L-25.1 -14.5Z" fill="#f3f0dc"></path></g><g transform="translate(1223 314)"><path d="M0 -67L58 -33.5L58 33.5L0 67L-58 33.5L-58 -33.5Z" fill="#f3f0dc"></path></g><g transform="translate(1723 203)"><path d="M0 -29L25.1 -14.5L25.1 14.5L0 29L-25.1 14.5L-25.1 -14.5Z" fill="#f3f0dc"></path></g><g transform="translate(393 1078)"><path d="M0 -41L35.5 -20.5L35.5 20.5L0 41L-35.5 20.5L-35.5 -20.5Z" fill="#f3f0dc"></path></g><g transform="translate(52 49)"><path d="M0 -43L37.2 -21.5L37.2 21.5L0 43L-37.2 21.5L-37.2 -21.5Z" fill="#f3f0dc"></path></g><g transform="translate(1606 416)"><path d="M0 -63L54.6 -31.5L54.6 31.5L0 63L-54.6 31.5L-54.6 -31.5Z" fill="#f3f0dc"></path></g><g transform="translate(26 761)"><path d="M0 -29L25.1 -14.5L25.1 14.5L0 29L-25.1 14.5L-25.1 -14.5Z" fill="#f3f0dc"></path></g><g transform="translate(1882 861)"><path d="M0 -36L31.2 -18L31.2 18L0 36L-31.2 18L-31.2 -18Z" fill="#f3f0dc"></path></g><g transform="translate(642 424)"><path d="M0 -38L32.9 -19L32.9 19L0 38L-32.9 19L-32.9 -19Z" fill="#f3f0dc"></path></g><g transform="translate(976 326)"><path d="M0 -43L37.2 -21.5L37.2 21.5L0 43L-37.2 21.5L-37.2 -21.5Z" fill="#f3f0dc"></path></g><g transform="translate(1190 653)"><path d="M0 -39L33.8 -19.5L33.8 19.5L0 39L-33.8 19.5L-33.8 -19.5Z" fill="#f3f0dc"></path></g><g transform="translate(259 458)"><path d="M0 -68L58.9 -34L58.9 34L0 68L-58.9 34L-58.9 -34Z" fill="#f3f0dc"></path></g><g transform="translate(160 1022)"><path d="M0 -61L52.8 -30.5L52.8 30.5L0 61L-52.8 30.5L-52.8 -30.5Z" fill="#f3f0dc"></path></g><g transform="translate(685 812)"><path d="M0 -67L58 -33.5L58 33.5L0 67L-58 33.5L-58 -33.5Z" fill="#f3f0dc"></path></g><g transform="translate(1898 609)"><path d="M0 -33L28.6 -16.5L28.6 16.5L0 33L-28.6 16.5L-28.6 -16.5Z" fill="#f3f0dc"></path></g><g transform="translate(1519 703)"><path d="M0 -38L32.9 -19L32.9 19L0 38L-32.9 19L-32.9 -19Z" fill="#f3f0dc"></path></g><g transform="translate(12 324)"><path d="M0 -67L58 -33.5L58 33.5L0 67L-58 33.5L-58 -33.5Z" fill="#f3f0dc"></path></g><g transform="translate(1018 1076)"><path d="M0 -64L55.4 -32L55.4 32L0 64L-55.4 32L-55.4 -32Z" fill="#f3f0dc"></path></g><g transform="translate(275 760)"><path d="M0 -47L40.7 -23.5L40.7 23.5L0 47L-40.7 23.5L-40.7 -23.5Z" fill="#f3f0dc"></path></g><g transform="translate(5 1019)"><path d="M0 -61L52.8 -30.5L52.8 30.5L0 61L-52.8 30.5L-52.8 -30.5Z" fill="#f3f0dc"></path></g><g transform="translate(1676 20)"><path d="M0 -51L44.2 -25.5L44.2 25.5L0 51L-44.2 25.5L-44.2 -25.5Z" fill="#f3f0dc"></path></g><g transform="translate(973 477)"><path d="M0 -43L37.2 -21.5L37.2 21.5L0 43L-37.2 21.5L-37.2 -21.5Z" fill="#f3f0dc"></path></g><g transform="translate(685 1068)"><path d="M0 -59L51.1 -29.5L51.1 29.5L0 59L-51.1 29.5L-51.1 -29.5Z" fill="#f3f0dc"></path></g><g transform="translate(1619 1039)"><path d="M0 -53L45.9 -26.5L45.9 26.5L0 53L-45.9 26.5L-45.9 -26.5Z" fill="#f3f0dc"></path></g><g transform="translate(584 135)"><path d="M0 -57L49.4 -28.5L49.4 28.5L0 57L-49.4 28.5L-49.4 -28.5Z" fill="#f3f0dc"></path></g><g transform="translate(1453 1078)"><path d="M0 -46L39.8 -23L39.8 23L0 46L-39.8 23L-39.8 -23Z" fill="#f3f0dc"></path></g><g transform="translate(1090 773)"><path d="M0 -67L58 -33.5L58 33.5L0 67L-58 33.5L-58 -33.5Z" fill="#f3f0dc"></path></g></g></svg>